<svg xmlns="http://www.w3.org/2000/svg" data-name="Layer 1" viewBox="0 0 512 512"><path fill="#fff8cc" d="M189.5 315.5h-21a30 30 0 0 1-30-30v-135a30 30 0 0 1 30-30h175a30 30 0 0 1 30 30v135a30 30 0 0 1-30 30h-20"/><path fill="#fff8cc" d="M323.5 275.5v199a29.998 29.998 0 0 1-30 30h-74a29.998 29.998 0 0 1-30-30v-199Z"/><rect width="350.062" height="195" x="80.969" y="150.5" fill="#d9f0ff" rx="30"/><circle cx="256.5" cy="49.135" r="41.635" fill="#ffed80"/><path fill="#cecece" d="m248.5 283.37-8.272-3.354a15.067 15.067 0 0 0-11.322 27.926l21.019 8.521a17.5 17.5 0 0 0 13.15 0l21.019-8.52a15.067 15.067 0 1 0-11.322-27.927l-9.272 3.76"/><path fill="#313440" d="M311.526 218H263.5v-15h25.526a7.5 7.5 0 0 0 0-15H263.5v-7.5a7.5 7.5 0 0 0-15 0v7.5h-25.526a7.5 7.5 0 1 0 0 15H248.5v15h-48.026a7.5 7.5 0 1 0 0 15H248.5v15h-25.526a7.5 7.5 0 1 0 0 15H248.5v12.277l-5.454-2.21a22.566 22.566 0 1 0-16.958 41.826l21.02 8.522a24.877 24.877 0 0 0 18.785-.001l21.018-8.52a22.567 22.567 0 1 0-16.956-41.829l-6.455 2.617V263h25.526a7.5 7.5 0 0 0 0-15H263.5v-15h48.026a7.5 7.5 0 0 0 0-15Zm-47.881 73.81 11.946-4.843A7.566 7.566 0 0 1 286 293.979a7.534 7.534 0 0 1-4.724 7.012v.001l-21.018 8.52a9.96 9.96 0 0 1-7.515.002l-21.02-8.523a7.566 7.566 0 1 1 5.687-14.023l11.945 4.84a18.908 18.908 0 0 0 14.29.002ZM256.5 98.27a49.135 49.135 0 1 0-49.135-49.135A49.19 49.19 0 0 0 256.5 98.27Zm0-83.27a34.135 34.135 0 1 1-34.135 34.135A34.173 34.173 0 0 1 256.5 15Zm144.53 128h-20.785a37.563 37.563 0 0 0-36.745-30h-175a37.563 37.563 0 0 0-36.745 30h-20.786a37.542 37.542 0 0 0-37.5 37.5v135a37.542 37.542 0 0 0 37.5 37.5H182v121.5a37.542 37.542 0 0 0 37.5 37.5h74a37.542 37.542 0 0 0 37.5-37.5V353h70.03a37.542 37.542 0 0 0 37.5-37.5v-135a37.542 37.542 0 0 0-37.5-37.5ZM168.5 128h175a22.536 22.536 0 0 1 21.21 15H147.29a22.536 22.536 0 0 1 21.21-15ZM182 338h-71.03a22.526 22.526 0 0 1-22.5-22.5v-135a22.526 22.526 0 0 1 22.5-22.5H131v127.5a37.542 37.542 0 0 0 37.5 37.5H182Zm134 136.5a22.526 22.526 0 0 1-22.5 22.5h-30V390.5a7.5 7.5 0 0 0-15 0V497h-29a22.526 22.526 0 0 1-22.5-22.5V353h119Zm7.5-206.5a7.5 7.5 0 0 0-7.5 7.5V338H197v-62.5a7.5 7.5 0 0 0-15 0V308h-13.5a22.526 22.526 0 0 1-22.5-22.5V158h220v127.5a22.526 22.526 0 0 1-22.5 22.5H331v-32.5a7.5 7.5 0 0 0-7.5-7.5Zm100.03 47.5a22.526 22.526 0 0 1-22.5 22.5H331v-15h12.5a37.542 37.542 0 0 0 37.5-37.5V158h20.03a22.526 22.526 0 0 1 22.5 22.5ZM168.5 173a7.5 7.5 0 0 0-7.5 7.5v75a7.5 7.5 0 0 0 15 0v-75a7.5 7.5 0 0 0-7.5-7.5Zm175 90a7.5 7.5 0 0 0 7.5-7.5v-75a7.5 7.5 0 0 0-15 0v75a7.5 7.5 0 0 0 7.5 7.5Z"/></svg>