<svg xmlns="http://www.w3.org/2000/svg" viewBox="0 0 32 32"><path fill="#ed6976" d="M19.83 23.45a2.28 2.28 0 0 0-1.83-.4V9a2.28 2.28 0 0 0 1.83-.4A2.59 2.59 0 0 0 21 6.69a2.48 2.48 0 0 0-4.81-1A2.54 2.54 0 0 0 16.05 7H16a2.54 2.54 0 0 0-.09-1.33 2.48 2.48 0 0 0-4.81 1 2.59 2.59 0 0 0 1.12 1.86A2.28 2.28 0 0 0 14 9v14.1a2.28 2.28 0 0 0-1.83.4 2.59 2.59 0 0 0-1.12 1.86 2.48 2.48 0 0 0 4.81 1A2.54 2.54 0 0 0 16 25h.1a2.54 2.54 0 0 0 .09 1.33 2.48 2.48 0 0 0 4.81-1 2.59 2.59 0 0 0-1.17-1.88Z"/><path fill="#525652" d="M13.52 29a3.48 3.48 0 0 1-2.23-.81 3.53 3.53 0 0 1-1.24-3 3.58 3.58 0 0 1 1.55-2.61A3.5 3.5 0 0 1 13 22V10a3.39 3.39 0 0 1-1.4-.6 3.55 3.55 0 0 1-1.55-2.6 3.54 3.54 0 0 1 1.25-2.99A3.47 3.47 0 0 1 16 4a3.47 3.47 0 0 1 4.7-.22A3.54 3.54 0 0 1 22 6.76a3.55 3.55 0 0 1-1.55 2.6A3.39 3.39 0 0 1 19 10v12a3.5 3.5 0 0 1 1.4.59 3.58 3.58 0 0 1 1.6 2.65 3.53 3.53 0 0 1-1.24 3A3.48 3.48 0 0 1 16 28a3.45 3.45 0 0 1-1.59.92 3.94 3.94 0 0 1-.89.08Zm0-5a1.31 1.31 0 0 0-.77.27 1.56 1.56 0 0 0-.7 1.11 1.51 1.51 0 0 0 .53 1.28 1.47 1.47 0 0 0 2.33-.66 1.36 1.36 0 0 0 .09-.48v-.08a1.15 1.15 0 0 0 0-.26 1 1 0 0 1 .21-.83 1.07 1.07 0 0 1 1.59 0 1 1 0 0 1 .26.83 1.15 1.15 0 0 0 0 .26v.08a1.36 1.36 0 0 0 .09.48 1.47 1.47 0 0 0 2.33.64 1.51 1.51 0 0 0 .52-1.26 1.56 1.56 0 0 0-.7-1.11 1.28 1.28 0 0 0-1.11-.27A1 1 0 0 1 17 23V9a1 1 0 0 1 .36-.77 1 1 0 0 1 .83-.23 1.25 1.25 0 0 0 1.06-.24A1.56 1.56 0 0 0 20 6.62a1.51 1.51 0 0 0-.53-1.28 1.47 1.47 0 0 0-2.38.66 1.36 1.36 0 0 0-.09.48v.08a1.15 1.15 0 0 0 0 .26 1 1 0 0 1-.21.83 1.07 1.07 0 0 1-1.59 0 1 1 0 0 1-.2-.85 1.15 1.15 0 0 0 0-.26v-.08a1.36 1.36 0 0 0-.09-.46 1.47 1.47 0 0 0-2.33-.64 1.51 1.51 0 0 0-.53 1.28 1.56 1.56 0 0 0 .7 1.11 1.25 1.25 0 0 0 1.06.25 1 1 0 0 1 .83.21A1 1 0 0 1 15 9v14.1a1 1 0 0 1-1.19 1Z"/></svg>