<svg xmlns="http://www.w3.org/2000/svg" width="32" height="32"><g transform="translate(0 -1020.362)"><path d="M31 1036.362s-6.94 7-15.5 7c-8.56 0-15.5-7-15.5-7s6.94-7 15.5-7c8.56 0 15.5 7 15.5 7z" opacity=".15"/><path fill="#e9eded" d="M32 1036.362s-6.94 7-15.5 7c-8.56 0-15.5-7-15.5-7s6.94-7 15.5-7c8.56 0 15.5 7 15.5 7z"/><path d="M22.5 1036.361c0 3.864-3.148 7.001-7.02 7.001-3.874 0-6.98-3.137-6.98-7s3.106-7 6.98-7c3.872 0 7.02 3.137 7.02 7z" opacity=".15"/><path fill="#f05542" d="M23.5 1036.361c0 3.864-3.148 7.001-7.02 7.001-3.874 0-6.98-3.137-6.98-7s3.106-7 6.98-7c3.872 0 7.02 3.137 7.02 7z"/><circle cx="15.5" cy="1036.362" r="4" fill-opacity=".976" color="#000" opacity=".15" overflow="visible" style="isolation:auto;mix-blend-mode:normal"/><path style="isolation:auto;mix-blend-mode:normal" fill="none" stroke="#f17f53" stroke-dashoffset=".5" stroke-linecap="round" stroke-linejoin="round" d="M11.187 1034.939a5.5 5.5 0 0 1 5.313-4.077" color="#000" overflow="visible"/><g color="#000" transform="translate(.944 115.151) scale(.88889)"><circle cx="17.5" cy="1036.362" r="4.5" fill="#2b4255" overflow="visible" style="isolation:auto;mix-blend-mode:normal"/><path style="isolation:auto;mix-blend-mode:normal" fill="#f8b74e" fill-opacity=".976" d="M20.682 1039.544a4.5 4.5 0 0 1-3.182 1.318 4.5 4.5 0 0 1-3.182-1.318l3.182-3.182Z" overflow="visible"/><path style="isolation:auto;mix-blend-mode:normal" fill="#25b39e" d="M17.5 1031.862a4.5 4.5 0 0 1 4.157 2.778 4.5 4.5 0 0 1-.975 4.904l-3.182-3.182Z" overflow="visible"/></g></g></svg>