<svg width="25" height="23" viewBox="0 0 25 23" fill="none" xmlns="http://www.w3.org/2000/svg">
<path d="M24.8334 20.7501C24.8334 21.159 24.6709 21.5511 24.3818 21.8402C24.0927 22.1293 23.7006 22.2917 23.2917 22.2917L1.70837 22.2917C1.2995 22.2917 0.90737 22.1293 0.61825 21.8402C0.329132 21.5511 0.166708 21.159 0.166708 20.7501C0.166708 20.3412 0.329132 19.9491 0.61825 19.66C0.90737 19.3708 1.2995 19.2084 1.70837 19.2084L23.2917 19.2084C23.7006 19.2084 24.0927 19.3708 24.3818 19.66C24.6709 19.9491 24.8334 20.3412 24.8334 20.7501Z" fill="#3F1F6B"/>
<path d="M24.8334 2.25008C24.8334 2.65896 24.6709 3.05109 24.3818 3.3402C24.0927 3.62932 23.7006 3.79175 23.2917 3.79175L1.70837 3.79175C1.2995 3.79175 0.90737 3.62932 0.61825 3.3402C0.329132 3.05108 0.166708 2.65895 0.166708 2.25008C0.166708 1.8412 0.329132 1.44907 0.61825 1.15995C0.90737 0.870832 1.2995 0.708408 1.70837 0.708408L23.2917 0.70841C23.7006 0.70841 24.0927 0.870834 24.3818 1.15995C24.6709 1.44907 24.8334 1.8412 24.8334 2.25008Z" fill="#3F1F6B"/>
<path d="M14.0417 13.0417C14.4506 13.0417 14.8427 12.8793 15.1318 12.5902C15.4209 12.3011 15.5834 11.909 15.5834 11.5001C15.5834 11.0912 15.4209 10.6991 15.1318 10.41C14.8427 10.1208 14.4506 9.95842 14.0417 9.95842L1.70837 9.95841C1.2995 9.95841 0.907369 10.1208 0.61825 10.41C0.329132 10.6991 0.166708 11.0912 0.166708 11.5001C0.166708 11.909 0.329132 12.3011 0.61825 12.5902C0.907369 12.8793 1.2995 13.0417 1.70837 13.0417L14.0417 13.0417Z" fill="#3F1F6B"/>
</svg>
