<svg xmlns="http://www.w3.org/2000/svg" width="32" height="32"><g fill-rule="evenodd"><path fill="#ec7bb0" d="M20.966 9.007a5.124 5.124 0 0 0-7.27 0l-1.21 1.212-1.21-1.212a5.125 5.125 0 0 0-7.27 0 5.14 5.14 0 0 0 0 7.278l8.474 7.928H12.493l8.474-7.928c2.08-1.947 2.013-5.263 0-7.278z"/><path fill="#62355c" d="M-167.36 555.865a5.649 5.649 0 0 0-3.988 9.639l.012.012 8.475 7.927a.5.5 0 0 0 .341.135h.014a.5.5 0 0 0 .34-.135l7.977-7.463 1.287 3.372a.5.5 0 0 0 .941-.018l2.336-6.86 1.215 2.848a.5.5 0 0 0 .461.303h2.442c.676.01.676-1.01 0-1h-2.112l-1.597-3.742a.5.5 0 0 0-.934.035l-2.31 6.783-.948-2.478c2.019-3.393 1.337-6.18-.44-7.815-2.356-1.893-5.656-2.045-7.81.111l-.855.858-.858-.858a5.619 5.619 0 0 0-3.988-1.654zm0 .989v.002c1.185 0 2.37.458 3.282 1.37l1.21 1.212a.5.5 0 0 0 .708 0l1.21-1.211a4.613 4.613 0 0 1 6.561 0h.004c1.769 1.773 1.869 4.633.16 6.398h-2.382l-1.57-2.465a.5.5 0 0 0-.9.115l-1.401 4.381-1.145-1.799a.5.5 0 0 0-.422-.232h-3.447c-.676-.01-.676 1.01 0 1h3.172l1.57 2.467a.5.5 0 0 0 .899-.115l1.402-4.381 1.146 1.799a.5.5 0 0 0 .422.23h1.604l-7.237 6.77-8.127-7.602h-.002a4.629 4.629 0 0 1 .002-6.568 4.624 4.624 0 0 1 3.282-1.371z" color="#000" font-family="sans-serif" style="line-height:normal;text-indent:0;text-align:start;text-decoration-line:none;text-decoration-style:solid;text-decoration-color:#000;text-transform:none;block-progression:tb;isolation:auto;mix-blend-mode:normal" font-weight="400" overflow="visible" transform="translate(175 -548.866)"/></g></svg>