<svg xmlns="http://www.w3.org/2000/svg" viewBox="0 0 48 48"><path fill="#f6ccaf" d="M47,14V44H32.84A147.11,147.11,0,0,1,31,20c-7.48,2.49-9.87,2.14-30,3V4H37A10,10,0,0,1,47,14Z"/><path fill="#ffdec7" d="M47,14V42H37.43a3,3,0,0,1-3-2.56A146.35,146.35,0,0,1,33,18a40.74,40.74,0,0,1-11.84,2.22l-15,.61a3,3,0,0,1-3.12-3V4H37A10,10,0,0,1,47,14Z"/><path fill="#dad7e5" d="M42.89,44h-5L36.72,23.62c-.67-2.23-1.5-1.76-1.75-3.7-.21-1.56.52-2.9,2-2.9.65,0,1.24.31,1.82.29s1.21-.38,1.9-.4c2.31-.08,2.86,2.11,1.84,3.91S41.71,22.59,42.89,44Z"/><path fill="#edebf2" d="M41.79,24c1,18.84.89,18,1,18a3.07,3.07,0,0,1-3.06-2.89l-1-17.49c-.67-2.23-1.5-1.76-1.75-3.7a3.9,3.9,0,0,1,0-.9c.65,0,1.24.31,1.82.29s1.21-.38,1.9-.4c2.31-.08,2.86,2.11,1.84,3.91A6.41,6.41,0,0,0,41.79,24Z"/><path fill="#dad7e5" d="M33.24,11.9c0,.6.34,1.22.34,1.9,0,2.27-2.14,2.85-4,1.73a6.35,6.35,0,0,0-3.15-.82L1,16.16v-6l26-.52c2.26-.59,1.81-1.44,3.76-1.63,1.43-.14,2.8.47,2.84,2C33.61,10.69,33.24,11.31,33.24,11.9Z"/><path fill="#edebf2" d="M33.24,11.9c0,.6.34,1.22.34,1.9a3,3,0,0,1-3-.27,6.35,6.35,0,0,0-3.15-.82L7,13.92a3.79,3.79,0,0,1-4-3.79c0-.1-1.13,0,24-.48,2.26-.59,1.81-1.44,3.76-1.63,1.43-.14,2.8.47,2.84,2C33.61,10.69,33.24,11.31,33.24,11.9Z"/><path fill="#dad7e5" d="M42.32,12.71c-.37.7-3.26,1.49-3.82,1.2C37.25,13.26,37,9.14,38,8.84,40,8.27,43,11.5,42.32,12.71Z"/><path fill="#edebf2" d="M42.16,11.45a5.12,5.12,0,0,1-2.66.46c-.72-.37-1.09-1.86-1.11-3.13C39.77,8.71,41.52,10.19,42.16,11.45Z"/><path d="M39.39 16.16a1.56 1.56 0 0 1-1.25 0 3.07 3.07 0 0 0-3.44.86 4.39 4.39 0 0 0 .24 5.27c1 1.29.7-.07 2 21.73a1 1 0 0 0 2-.12L37.72 23.56a5.72 5.72 0 0 0-1.21-2.48 2.44 2.44 0 0 1-.27-2.75c.39-.47 1-.3 1.41-.19A3.41 3.41 0 0 0 40 18.07c2-.61 2.5.78 1.66 2.26-1.29 2.26-.93 2.3.25 23.72a1 1 0 0 0 2-.1c-1.19-21.52-1.43-21-.51-22.64C45.12 18.24 43.09 15 39.39 16.16zM34.6 10c-.05-2.09-1.87-3.16-3.94-3-2.34.23-1.85 1.09-3.8 1.63L1 9.17a1 1 0 0 0 0 2l26-.52a5.7 5.7 0 0 0 2.53-1.13 2.45 2.45 0 0 1 2.76-.18c.46.41.26 1 .14 1.41a3.39 3.39 0 0 0 0 2.33c.55 2-.86 2.48-2.31 1.6a7.19 7.19 0 0 0-3.73-1L.94 15.16a1 1 0 0 0 .12 2c27.6-1.58 26.33-1.82 28-.78 2.52 1.54 5.49.46 5.49-2.55a17.14 17.14 0 0 0-.34-1.93A12.35 12.35 0 0 0 34.6 10z"/><path d="M37,3H1A1,1,0,0,0,1,5H37a9,9,0,0,1,9,9V44a1,1,0,0,0,2,0V14A11,11,0,0,0,37,3Z"/><path d="M32 20a1 1 0 0 0-1.32-.95C23.19 21.56 20.4 21.17 1 22A1 1 0 0 0 1 24c18.85-.77 22.27-.51 29-2.58a149.11 149.11 0 0 0 1.85 22.78A1 1 0 0 0 33 45C35.32 44.62 32 41.49 32 20zM38 14.8c1.06.54 4.53-.41 5.17-1.62C44.35 11 40.3 7.06 37.66 7.89 35.9 7.89 35.88 13.67 38 14.8zm.42-5a4.35 4.35 0 0 1 3 2.44 6.71 6.71 0 0 1-2.51.76A5.07 5.07 0 0 1 38.46 9.77z"/></svg>