<svg width="24" height="24" viewBox="0 0 24 24" fill="none" xmlns="http://www.w3.org/2000/svg">
<path opacity="0.4" d="M11.5 21C16.7467 21 21 16.7467 21 11.5C21 6.25329 16.7467 2 11.5 2C6.25329 2 2 6.25329 2 11.5C2 16.7467 6.25329 21 11.5 21Z" fill="#162082"/>
<path d="M21.3001 21.9986C21.1201 21.9986 20.9401 21.9286 20.8101 21.7986L18.9501 19.9386C18.6801 19.6686 18.6801 19.2286 18.9501 18.9486C19.2201 18.6786 19.6601 18.6786 19.9401 18.9486L21.8001 20.8086C22.0701 21.0786 22.0701 21.5186 21.8001 21.7986C21.6601 21.9286 21.4801 21.9986 21.3001 21.9986Z" fill="#162082"/>
</svg>
