<svg xmlns="http://www.w3.org/2000/svg" width="32" height="32"><path fill="#cdd7e0" d="M13.293 16c0 6.479 1.901 11.731 4.247 11.731 2.345 0 4.246-5.252 4.246-11.731 0-6.48-1.901-11.732-4.246-11.732-4.09 1.226-4.306 2.727-8.508 0C6.687 4.268 4.786 9.52 4.786 16c0 6.479 1.901 11.731 4.246 11.731 2.345 0 4.246-5.252 4.246-11.731"/><path fill="#a1b4c5" d="M17.536 4.265c-.372.112-.686.231-1 .344 1.87 1.228 3.25 5.834 3.25 11.375s-1.38 10.178-3.25 11.406c.323.217.653.344 1 .344 2.345 0 4.25-5.27 4.25-11.75s-1.905-11.719-4.25-11.719z"/><path fill="#ededed" d="M9.036 4.265c-2.345 0-4.25 5.24-4.25 11.719 0 6.48 1.905 11.75 4.25 11.75.347 0 .677-.127 1-.344-1.87-1.228-3.25-5.865-3.25-11.406 0-5.336 1.266-9.826 3.031-11.25-.256-.15-.49-.28-.781-.469z"/><path fill="none" stroke="#373449" stroke-linecap="round" stroke-linejoin="round" d="M13.293 16c0 6.479 1.901 11.731 4.247 11.731 2.345 0 4.246-5.252 4.246-11.731 0-6.48-1.901-11.732-4.246-11.732-4.09 1.226-4.306 2.727-8.508 0C6.687 4.268 4.786 9.52 4.786 16c0 6.479 1.901 11.731 4.246 11.731 2.345 0 4.246-5.252 4.246-11.731"/><path fill="none" stroke="#373449" stroke-linecap="round" stroke-linejoin="round" d="M8.7 8.727c-.497 1.736-.82 3.868-.896 6.197m-.01 1.841c.01.368.024.73.044 1.088m.131 1.57c.072.649.163 1.274.273 1.87"/><path fill="#fafafa" stroke="#373449" stroke-linecap="round" stroke-linejoin="round" d="M17.095 9.212a5.206 5.206 0 1 0 7.362 7.362 5.206 5.206 0 0 0-7.362-7.362zm1.636 1.636a2.892 2.892 0 1 1 4.09 4.09 2.892 2.892 0 0 1-4.09-4.09z"/><path fill="#ff5855" stroke="#373449" stroke-linecap="round" stroke-linejoin="round" d="m23.64 17.392 1.636-1.636 5.726 5.726-1.637 1.636z"/><path fill="none" stroke="#fff" stroke-linecap="round" stroke-linejoin="round" d="M19.83 12.573a1 1 0 0 0 .512 1.208"/></svg>